<svg width="30" height="31" viewBox="0 0 30 31" fill="none" xmlns="http://www.w3.org/2000/svg">
<g clip-path="url(#clip0_783_1300)">
<path d="M25.8319 16.5609C23.4639 10.3985 14.6625 10.3272 18.0005 0.327587C11.6242 3.19481 6.57442 10.5697 11.5671 20.3125C4.50603 17.3455 7.60149 9.91351 7.60149 9.91351C7.60149 9.91351 3.75 12.2815 3.75 19.4424C4.29206 27.4307 11.0393 29.8842 13.4643 30.198C16.9306 30.6402 20.6823 29.9983 23.3783 27.5305C26.3454 24.7774 27.4295 20.3839 25.8319 16.5609ZM12.5942 23.7361C14.6483 23.2368 15.7039 21.7533 15.9892 20.4409C16.4599 18.4011 14.6198 16.404 15.8608 13.1801C16.3315 15.8477 20.5254 17.5166 20.5254 20.4267C20.6395 24.0356 16.7309 27.1311 12.5942 23.7361Z" fill="#4392F1"/>
</g>
<defs>
<clipPath id="clip0_783_1300">
<rect width="30" height="30" fill="white" transform="translate(0 0.327587)"/>
</clipPath>
</defs>
</svg>
